<?xml version="1.0" standalone="no"?>
<!DOCTYPE svg PUBLIC "-//W3C//DTD SVG 20010904//EN"
 "http://www.w3.org/TR/2001/REC-SVG-20010904/DTD/svg10.dtd">
<svg version="1.0" xmlns="http://www.w3.org/2000/svg"
 width="1178.000000pt" height="1280.000000pt" viewBox="0 0 1178.000000 1280.000000"
 preserveAspectRatio="xMidYMid meet">
<metadata>
Created by potrace 1.15, written by Peter Selinger 2001-2017
</metadata>
<g transform="translate(0.000000,1280.000000) scale(0.100000,-0.100000)"
fill="#000000" stroke="none">
<path d="M6707 12785 c-60 -21 -143 -80 -229 -164 l-79 -76 -17 -192 c-9 -106
-19 -193 -22 -193 -3 0 -41 32 -85 71 -100 89 -148 122 -231 161 -219 103
-662 -6 -1249 -306 -161 -82 -450 -245 -498 -280 -15 -12 -20 -52 -39 -302
-24 -330 -29 -208 58 -1414 108 -1511 168 -2211 324 -3757 45 -442 48 -503 24
-503 -8 0 -29 -13 -45 -29 -24 -24 -29 -38 -29 -78 0 -64 34 -186 71 -249 29
-51 29 -51 29 -225 0 -193 -3 -206 -105 -536 -3 -8 -61 23 -152 82 l-148 94
-6 -127 c-7 -168 -19 -195 -92 -217 -30 -8 -61 -21 -69 -28 -24 -18 -193 -261
-217 -310 -30 -61 -43 -148 -39 -249 3 -83 5 -89 34 -115 59 -53 114 -137 114
-174 0 -80 -135 -223 -323 -343 -32 -20 -56 -40 -53 -44 2 -4 47 -39 99 -77
l95 -69 -56 -63 c-76 -84 -299 -283 -447 -398 -66 -51 -169 -139 -229 -194
-60 -56 -135 -116 -165 -134 l-56 -32 -186 0 -186 0 -54 -42 c-30 -22 -72 -46
-94 -52 -52 -14 -175 -14 -250 1 -38 7 -186 12 -410 12 l-350 1 -225 47 c-334
70 -470 82 -633 57 -78 -12 -111 -33 -122 -77 -3 -15 -22 -73 -42 -129 l-35
-101 -62 -7 c-158 -17 -199 -60 -222 -231 l-6 -52 148 -144 c323 -313 524
-494 749 -674 77 -61 153 -126 169 -143 16 -17 45 -36 65 -42 20 -6 89 -45
153 -85 614 -384 1099 -564 1713 -635 239 -28 693 -15 963 27 564 89 1128 317
1542 623 106 78 395 370 606 611 98 113 223 250 277 305 l98 100 -6 -295 c-3
-162 -8 -322 -11 -355 l-5 -60 145 -99 c94 -63 146 -104 146 -115 0 -16 34
-18 473 -24 259 -4 620 -7 800 -7 l328 0 286 577 c157 318 347 704 423 858 75
154 225 456 333 672 211 422 205 403 126 403 -21 0 -39 5 -39 10 0 6 14 39 32
73 17 34 46 109 63 167 l31 104 166 27 c91 15 170 29 176 33 5 3 22 40 37 83
32 90 32 90 67 98 23 6 26 4 21 -14 -9 -34 5 -67 32 -79 35 -16 123 -15 290 4
106 12 147 13 169 5 27 -11 28 -14 23 -55 -4 -24 -32 -110 -63 -192 -47 -122
-57 -161 -58 -214 -1 -58 1 -65 23 -76 51 -26 102 18 248 211 34 44 77 96 97
115 58 55 69 40 172 -218 75 -188 120 -236 173 -183 30 30 35 84 23 241 -17
202 -16 284 3 300 18 15 69 -3 267 -90 130 -57 188 -67 213 -35 40 53 7 101
-203 293 -57 52 -110 108 -119 125 -15 31 -15 31 17 58 18 15 98 56 179 91
207 89 257 140 195 199 -24 22 -33 24 -122 22 -54 0 -142 -5 -197 -10 -55 -4
-118 -6 -140 -3 l-40 5 1 45 c0 30 21 97 62 201 34 86 64 175 68 197 9 55 -14
92 -56 92 -41 0 -95 -51 -227 -213 -58 -71 -115 -133 -129 -139 -43 -20 -60 7
-134 214 -65 179 -95 228 -140 228 -69 0 -80 -65 -55 -320 9 -95 14 -183 11
-196 -5 -18 -15 -24 -52 -30 -41 -6 -59 -1 -192 56 -163 70 -221 83 -252 55
-34 -31 -24 -82 27 -136 l24 -27 -43 -5 c-24 -4 -63 -9 -88 -12 l-45 -7 -24
144 c-13 79 -29 161 -35 182 l-11 39 -74 -87 c-70 -82 -190 -200 -198 -193 -1
2 -7 39 -13 83 -17 121 -65 293 -115 406 -75 168 -76 175 -85 464 -6 200 -11
268 -23 295 -8 19 -17 70 -20 114 -7 98 -31 165 -135 368 -43 84 -85 175 -94
202 -44 137 -94 419 -149 840 -17 132 -47 326 -66 430 -27 143 -37 227 -40
340 -6 181 -1 205 98 456 115 295 124 371 62 560 -35 106 -38 122 -37 224 1
83 9 145 33 255 62 278 71 327 82 450 14 165 23 1218 14 1688 l-7 373 -71 45
c-204 132 -547 312 -742 389 -189 75 -328 108 -460 108 -188 1 -305 -51 -570
-257 -60 -47 -111 -83 -114 -81 -2 3 -15 85 -27 182 l-23 178 -68 62 c-88 81
-203 161 -264 184 -58 22 -99 23 -152 4z"/>
</g>
</svg>